<svg version="1.0" xmlns="http://www.w3.org/2000/svg" viewBox="0 0 260 260"><path d="M114.2 3C85.1 6.7 59.5 19 39.1 39.2 30.8 47.4 20.7 60.1 21.7 61c.4.4 5.5 2.4 11.3 4.4 5.8 2.1 13.9 5.3 18.1 7.2 14.6 6.5 26.1 6.3 46-1.2 16.1-6 23.3-7.5 35.8-7.5 15.7 0 26.8 3.1 39.4 11.1 6.1 3.8 22.7 20 22.7 22.1 0 .5.5.9 1.2.9.9 0 51.5-18.7 52.5-19.5.1 0-1.1-3-2.8-6.6-10.9-23.1-33.8-45.6-58.2-57.3-9-4.3-19.8-8-30.2-10.1-9.5-2-32.9-2.8-43.3-1.5zM15.8 70.2c-5.6 2-4 3.3 11.5 9.3 30.9 12 38.2 14.4 40.2 13.1 1.1-.8 2-2 2-2.7 0-.9-9.1-4.9-25-11.1-13.7-5.3-25.2-9.7-25.5-9.7-.3 0-1.7.5-3.2 1.1zM8.9 83.1c-1.6 3.1-.3 4 15.1 9.7 7.4 2.8 18.4 7 24.3 9.2 6 2.3 11.5 3.9 12.3 3.6 1.2-.4 2.2-5.6 1.1-5.6-.2 0-11.8-4.3-25.6-9.5C22.2 85.3 10.6 81 10.4 81c-.2 0-.8 1-1.5 2.1zM5 96.2c0 1.3.4 2.8.8 3.5.4.7 9.1 4.4 19.2 8.4 30.4 11.7 31.1 11.9 31.7 10.3 1.1-2.9-2.5-5.9-10.8-9.1-4.6-1.7-15.5-5.9-24.3-9.2-8.7-3.4-16-6.1-16.2-6.1-.2 0-.4 1-.4 2.2zM1 109.1c0 2.1 2.2 5 4.3 5.9 25.3 10.1 49.3 18.8 49.9 18.2 2-2-1.5-6.2-6.6-8.1C0 106.5 1 106.9 1 109.1z"/><path d="M140.9 110.5c-1.5.8-4.6 5.2-7.8 10.9-7.5 13.6-7.8 17.6-2.1 31.9 3.3 8.2 5 11.2 7.5 13.2l3.3 2.5 27.2.2 27.1.3-2.8 4.1c-6.9 10-23.1 21.4-38.3 26.8-8.1 2.9-9.2 3.1-24 3.1-14.4-.1-16.1-.3-23.5-2.8-16.4-5.8-28.7-16.1-38.9-32.7-10.9-17.6-18.3-24.5-36.1-33-7.7-3.8-29-12-31-12-1.2 0-1.5 12.4-.6 20.7 5.9 53.7 45.1 97.3 99.8 111 9.7 2.4 12.6 2.7 28.8 2.8 19.3 0 27.5-1.2 42.5-6.1 32.4-10.7 60.2-35.2 75.1-66.2 4.6-9.5 9-22.7 11-32.7 1.7-8.7 1.8-33.4.1-39.3l-1.3-4.2h-56.7c-46.4.1-57.2.3-59.3 1.5z"/></svg>
